<?xml version="1.0" encoding="UTF-8"?>
<svg width="24px" height="24px" viewBox="0 0 24 24" version="1.1" xmlns="http://www.w3.org/2000/svg">
    <title>Social Icon</title>
    <g stroke="none" stroke-width="1" fill="none" fill-rule="evenodd">
        <path d="M12,2 C17.5228475,2 22,6.47715250 22,12 C22,17.5228475 17.5228475,22 12,22 C6.47715250,22 2,17.5228475 2,12 C2,6.47715250 6.47715250,2 12,2 Z M12,7 C10.8954305,7 10,7.89543050 10,9 C10,10.1045695 10.8954305,11 12,11 C13.1045695,11 14,10.1045695 14,9 C14,7.89543050 13.1045695,7 12,7 Z M7.00036205,16.4995035 C6.98863236,16.6619875 7.14585454,16.8773559 7.30829933,16.8991024 C9.37521766,17.1288026 10.7890420,17.2000000 12,17.2000000 C13.2121821,17.2000000 14.6261225,17.1288026 16.6739130,16.8991024 C16.8362772,16.8773559 16.9934614,16.6619875 16.9817317,16.4995035 C16.7949129,14.5065688 14.6436532,13.2000000 12,13.2000000 C9.35634682,13.2000000 7.20509704,14.5065688 7.00036205,16.4995035 Z" fill="currentColor"/>
    </g>
</svg>
